# xmcd
#
# Track frame offsets:
#	150
#	16705
#	46107
#	76307
#	104440
#	124352
#	155312
#	182142
#	212582
#
# Disc length: 3041 seconds
# Revision: 0
# Processed by: cddbd v1.5.2PL0 Copyright (c) Steve Scherf et al.
# Submitted via: dBpowerAMP V12.0
#
DISCID=690bdf09
DTITLE=Betty Boo - Doin' The Do
DYEAR=1990
DGENRE=House
TTITLE0=Doin' The Do [Single Version]
TTITLE1=Doin' The Do [The Good Do-Bee Mix]
TTITLE2=Doin' The Do [Doin' The Wop Mix]
TTITLE3=Doin' The Do [Beatmasters Club Mix]
TTITLE4=Shame [Hoodlum Mix]
TTITLE5=Doin' The Do [Damned If You Do Mix]
TTITLE6=Doin' The Do [Damned If You Do Dub Mix]
TTITLE7=Doin' The Do [King John Mix]
TTITLE8=Shame [Single Version]
EXTD=
EXTT0=
EXTT1=
EXTT2=
EXTT3=
EXTT4=
EXTT5=
EXTT6=
EXTT7=
EXTT8=
PLAYORDER=
